<?xml version="1.0" encoding="UTF-8" standalone="no"?>
<!-- Created with Inkscape (http://www.inkscape.org/) -->

<svg
   xmlns:dc="http://purl.org/dc/elements/1.1/"
   xmlns:cc="http://creativecommons.org/ns#"
   xmlns:rdf="http://www.w3.org/1999/02/22-rdf-syntax-ns#"
   xmlns:svg="http://www.w3.org/2000/svg"
   xmlns="http://www.w3.org/2000/svg"
   xmlns:sodipodi="http://sodipodi.sourceforge.net/DTD/sodipodi-0.dtd"
   xmlns:inkscape="http://www.inkscape.org/namespaces/inkscape"
   width="388.33777mm"
   height="54.179462mm"
   viewBox="0 0 1376 191.97447"
   id="svg2"
   version="1.1"
   inkscape:version="0.91 r13725"
   sodipodi:docname="dLabs-logo.svg">
  <defs
     id="defs4" />
  <sodipodi:namedview
     id="base"
     pagecolor="#ffffff"
     bordercolor="#666666"
     borderopacity="1.0"
     inkscape:pageopacity="0.0"
     inkscape:pageshadow="2"
     inkscape:zoom="0.35"
     inkscape:cx="874.42856"
     inkscape:cy="-216.45809"
     inkscape:document-units="px"
     inkscape:current-layer="layer1"
     showgrid="false"
     fit-margin-top="0"
     fit-margin-left="0"
     fit-margin-right="0"
     fit-margin-bottom="0"
     inkscape:window-width="1280"
     inkscape:window-height="706"
     inkscape:window-x="0"
     inkscape:window-y="1"
     inkscape:window-maximized="1" />
  <metadata
     id="metadata7">
    <rdf:RDF>
      <cc:Work
         rdf:about="">
        <dc:format>image/svg+xml</dc:format>
        <dc:type
           rdf:resource="http://purl.org/dc/dcmitype/StillImage" />
        <dc:title></dc:title>
      </cc:Work>
    </rdf:RDF>
  </metadata>
  <g
     inkscape:label="Layer 1"
     inkscape:groupmode="layer"
     id="layer1"
     transform="translate(933.71427,104.64179)">
    <path
       style="fill:#4ba3c7"
       d="m -595.24302,-37.762551 c -3.41035,0.01546 -7.12071,0.05625 -10.97071,0.125 l -28,0.5 0,28.9999996 0,29.0000004 27.5,0.52343 c 15.125,0.28833 27.74633,0.62583 28.04883,0.75 0.3025,0.12417 1.09,-0.31461 1.75,-0.97461 1.75852,-1.75852 1.71224,-57.19663 -0.0488,-58.42578 -0.51562,-0.35989 -8.04824,-0.54443 -18.27929,-0.49804 z"
       id="path4151"
       inkscape:connector-curvature="0" />
    <path
       inkscape:connector-curvature="0"
       id="path4149"
       d="m -933.00188,86.741264 c -0.39182,-0.39181 -0.71239,-43.61238 -0.71239,-96.0457197 l 0,-95.3333343 105.44098,0 c 57.99254,0 105.67937,0.38572 105.97073,0.85714 0.29136,0.47143 3.35542,1.43997 6.80902,2.15231 3.4536,0.71234 8.07927,2.173694 10.27927,3.247444 5.79071,2.82625 12.26612,9.45169 15.14598,15.49689 4.68571,9.83591 5.31689,18.97945 5.33228,77.2462203 0.0152,57.5025997 -0.57451,66.3331997 -4.99581,74.8113597 -3.97556,7.62341 -12.2055,13.14995 -24.48245,16.44036 -4.56214,1.22272 -217.59455,2.3204 -218.78761,1.12733 z m 188.1484,-38.00121 c 1.71093,-0.34218 4.24218,-1.6707 5.625,-2.95225 l 2.51421,-2.33009 0,-51.9588597 0,-51.9588503 -3.10135,-2.60961 -3.10134,-2.60961 -66.48734,0.27071 -66.48733,0.27072 -1.91132,2.36078 c -1.82716,2.25684 -1.91132,4.6577 -1.91132,54.5275003 0,56.3477797 -0.0428,55.8847297 5.2588,56.9071397 3.58492,0.69135 126.16754,0.76931 129.60199,0.0824 z m 252.63921,37.16231 c -14.68604,-1.99398 -23.1803,-6.88275 -29.21691,-16.81542 l -3.78309,-6.22473 -0.29273,-83.75 -0.29273,-83.750004 25.51768,0 25.51769,0 0.0373,73.694304 c 0.031,61.11545 0.27415,74.0557 1.42469,75.81164 2.9019,4.42887 5.15636,4.54498 86.78237,4.46929 l 77.30569,-0.0717 0,18.79822 0,18.79822 -87,0.13106 c -63.61151,0.0958 -89.4195,-0.19744 -96,-1.09091 z m 250,-0.003 c -18.53939,-2.51153 -27.60222,-9.95214 -32.11921,-26.36996 -3.26669,-11.87335 -3.44072,-34.38503 -0.34644,-44.81212 4.03286,-13.5899397 9.58492,-19.9871897 22.46565,-25.8856 1.11101,-0.50876 32.2908,-1.15007 70.14619,-1.44279 79.65372,-0.61566 72.35381,0.59979 72.35381,-12.04681 0,-6.26948 -0.38471,-8.19924 -2.0589,-10.32762 l -2.0589,-2.61747 -80.47777,-0.26739 c -70.25114,-0.23341 -80.59824,-0.458 -81.42579,-1.76739 -0.52141,-0.825 -0.95491,-8.9824 -0.96333,-18.12755 -0.0119,-12.88381 0.29355,-16.88389 1.35645,-17.76602 1.00894,-0.83734 24.74789,-1.06001 89.75,-0.84186 76.93891,0.25822 89.478457,0.50878 96.878247,1.93585 12.75293,2.45942 21.5478,8.19778 26.09739,17.02766 4.58954,8.90741 4.90261,14.03536 4.90261,80.30211 0,60.66904 -0.0536,62.42815 -1.93426,63.43463 -2.91849,1.56192 -170.781947,1.16894 -182.565747,-0.4274 z m 130.3957,-38.94241 c 1.81,-1.63856 2.1043,-3.04098 2.1043,-10.02749 0,-5.73304 -0.45795,-8.77632 -1.5567,-10.34501 l -1.55671,-2.22224 -52.87209,0 -52.8721,0 -3.5712,3.36808 c -3.08592,2.9104 -3.5712,3.9911 -3.5712,7.95294 0,6.43103 1.77454,9.6689 6.47964,11.82296 3.75946,1.72114 7.30694,1.82486 54.66606,1.5983 48.21378,-0.23065 50.74675,-0.33375 52.75,-2.14727 z m 87.129707,38.45246 c -0.70598,-1.31915 -1.03532,-32.46078 -1.01525,-96 l 0.02971,-94.047204 26.7300699,-0.002 26.7300701,-0.002 -0.30333,12.835054 c -0.23659,10.01135 0.002,13.08837 1.08414,13.98654 1.00275,0.83221 18.41707,1.25157 62.80329,1.51238 65.960693,0.38759 72.531393,0.83966 81.915893,5.63584 8.0321,4.10502 11.6708,7.71817 15.4258,15.31783 l 3.5742,7.23358 0,53.7547103 c 0,31.1572497 -0.3903,54.4846697 -0.9284,55.4911397 -0.5106,0.95504 -1.8982,3.86886 -3.0837,6.47517 -2.5073,5.51228 -9.5599,12.14301 -15.9879,15.03151 -9.5092,4.27306 -18.4525,4.65566 -109.714813,4.69376 -84.51177,0.0353 -86.23545,-0.003 -87.25978,-1.91654 z M 135.18833,47.784244 c 2.1687,-0.86774 4.3061,-2.33024 4.7499,-3.25 0.9584,-1.98661 1.7447,-69.21955 0.8646,-73.92417 -0.3347,-1.78853 -1.8208,-4.37603 -3.3025,-5.75 l -2.6942,-2.49786 -52.560193,0 c -39.54682,0 -52.85731,0.29711 -53.7602,1.2 -0.89363,0.89363 -1.2,11.48889 -1.2,41.5000003 0,38.9666697 0.0662,40.3661697 2,42.2999997 1.94665,1.94665 3.33333,2 51.9798,2 43.187593,0 50.515593,-0.21441 53.922793,-1.5777 z m 89.1326,37.64344 c -1.1002,-2.05571 -1.4692,-31.77122 -0.4282,-34.48395 0.5463,-1.42378 8.4411,-1.58179 79.0321,-1.58179 84.7802,0 83.0974,0.10347 86.6565,-5.32838 1.034,-1.57809 1.7044,-4.57556 1.7044,-7.62066 0,-4.13233 -0.5155,-5.59656 -2.917,-8.28518 l -2.917,-3.26551 -66.833,-0.5 c -48.7051,-0.36438 -67.3755,-0.81962 -68.833,-1.67836 -1.1,-0.64809 -4.25,-2.18687 -7,-3.4195 -4.3813,-1.96383 -12.5,-8.85854 -12.5,-10.6155097 0,-0.34603 -0.6619,-1.36059 -1.471,-2.25457 -2.8716,-3.1731 -5.0108,-15.83683 -4.9887,-29.5320603 0.033,-20.60307 3.6571,-33.02882 11.9799,-41.07784 6.1399,-5.9379 12.1108,-9.05957 18.9147,-9.88889 3.2642,-0.39787 6.9936,-1.12588 8.2874,-1.6178 1.3162,-0.50041 41.211,-0.90886 90.5651,-0.92721 l 88.2126,-0.0328 0.2845,17.77227 c 0.1565,9.77475 0.064,18.67228 -0.2061,19.77228 -0.4864,1.98191 -1.2117,1.99763 -80.2174,1.73805 l -79.7266,-0.26194 -2.8172,2.69903 c -2.5131,2.40766 -2.8172,3.38766 -2.8172,9.07769 0,7.97706 0.8379,9.53793 6.2028,11.55519 3.7643,1.41538 12.3586,1.6515 69.2972,1.90388 l 65,0.2881 3.9852,2.2500003 c 2.1918,1.2375 4.5543,2.25 5.25,2.25 0.6956,0 1.2648,0.35298 1.2648,0.78439 0,0.43142 1.3058,1.55575 2.9018,2.49852 1.596,0.94276 4.5318,4.16995999 6.5242,7.17155 1.9923,3.00159 4.0615,5.72882 4.5982,6.06051 0.5938,0.36695 0.9758,10.7455997 0.9758,26.5088597 0,24.88235 -0.079,25.94809 -2,26.97617 -1.1,0.5887 -2,1.62304 -2,2.29853 0,4.31265 -13.1231,17.70147 -17.3501,17.70147 -0.6875,0 -1.7786,0.52874 -2.4249,1.17497 -3.1579,3.15789 -19.9461,3.75273 -106.9398,3.78904 -84.2339,0.0352 -86.2386,-0.008 -87.25,-1.89827 z"
       style="fill:#6f6e6e" />
  </g>
</svg>
